<?xml version="1.0" standalone="no"?><!DOCTYPE svg PUBLIC "-//W3C//DTD SVG 1.1//EN" "http://www.w3.org/Graphics/SVG/1.1/DTD/svg11.dtd"><svg t="1650067272507" class="icon" viewBox="0 0 1024 1024" version="1.1" xmlns="http://www.w3.org/2000/svg" p-id="7834" width="1000" height="1000" xmlns:xlink="http://www.w3.org/1999/xlink"><defs><style type="text/css">@font-face { font-family: feedback-iconfont; src: url("//at.alicdn.com/t/font_1031158_u69w8yhxdu.woff2?t=1630033759944") format("woff2"), url("//at.alicdn.com/t/font_1031158_u69w8yhxdu.woff?t=1630033759944") format("woff"), url("//at.alicdn.com/t/font_1031158_u69w8yhxdu.ttf?t=1630033759944") format("truetype"); }
</style></defs><path d="M383.6 593.8H239.7V442h151.8l-23.7-27.6h-2l-67-65c-27.6-27.6-71-27.6-98.5 0L84 465.7c-27.6 27.6-27.6 71 0 98.5l116.3 116.3c27.6 27.6 71 27.6 98.5 0l61.1-61.1 23.7-25.6z m555.8-128.1L823.1 349.4c-27.6-27.6-71-27.6-98.5 0l-65 65-23.7 27.6h151.8v151.8H641.8l84.7 84.7c27.6 27.6 71 27.6 98.5 0l116.3-116.3c25.7-25.6 25.7-68.9-1.9-96.5z m-536.1-96.6l23.6 23.6V246.9h151.8v151.8l27.6-23.7v-2l65-65c27.6-27.6 27.6-71 0-98.5L557 93.2c-27.6-27.6-71-27.6-98.5 0L342.2 209.5c-27.6 27.6-27.6 71 0 98.5l61.1 61.1z m205 285.8l-23.6-23.6v145.8H432.9V625.3L405.3 649v2l-65 65c-27.6 27.6-27.6 71 0 98.5l116.3 116.3c27.6 27.6 71 27.6 98.5 0l116.3-116.3c27.6-27.6 27.6-71 0-98.5l-63.1-61.1z m0 0" p-id="7835" fill="#1296db"></path></svg>