<?xml version="1.0" standalone="no"?>
<!DOCTYPE svg PUBLIC "-//W3C//DTD SVG 20010904//EN"
 "http://www.w3.org/TR/2001/REC-SVG-20010904/DTD/svg10.dtd">
<svg version="1.0" xmlns="http://www.w3.org/2000/svg"
 width="1280.000000pt" height="904.000000pt" viewBox="0 0 1280.000000 904.000000"
 preserveAspectRatio="xMidYMid meet">
<metadata>
Created by potrace 1.15, written by Peter Selinger 2001-2017
</metadata>
<g transform="translate(0.000000,904.000000) scale(0.100000,-0.100000)"
fill="#03a9f4" stroke="none">
<path d="M4967 7229 c-46 -11 -95 -35 -123 -61 -14 -12 -47 -23 -90 -29 -38
-5 -86 -14 -107 -20 -33 -9 -41 -7 -70 14 -52 39 -97 52 -172 51 -82 -1 -140
-24 -209 -85 -100 -89 -145 -198 -156 -379 -7 -113 -11 -133 -44 -213 -66
-156 -87 -260 -93 -452 -4 -144 -2 -185 15 -265 78 -379 329 -603 744 -664
132 -20 227 -20 348 -1 126 20 204 46 325 105 329 162 529 468 552 842 21 352
-130 680 -404 875 -35 25 -71 59 -80 77 -50 98 -138 165 -258 196 -84 21 -118
23 -178 9z"/>
<path d="M3535 6834 c-81 -43 -191 -123 -234 -169 -76 -83 -97 -145 -111 -332
-12 -160 -20 -213 -31 -213 -5 0 -102 93 -217 208 -114 114 -264 258 -334 319
-132 116 -167 134 -218 115 -44 -17 -234 -177 -252 -213 -12 -22 -23 -86 -33
-179 -8 -80 -22 -206 -31 -280 -12 -94 -17 -217 -18 -405 l-1 -270 32 -74 c38
-87 72 -139 95 -146 9 -3 31 0 50 8 34 14 201 138 277 206 l44 39 -6 212 c-4
116 -3 210 1 208 4 -2 66 -66 137 -143 71 -77 169 -181 216 -232 48 -51 120
-140 160 -198 73 -107 105 -139 144 -140 11 -1 26 -5 33 -9 29 -18 150 50 182
101 9 16 48 48 86 70 110 66 123 83 136 193 8 67 8 136 -1 254 -15 221 -14
425 4 605 24 239 34 413 24 439 -5 13 -25 29 -44 37 -42 18 -31 20 -90 -11z"/>
<path d="M7577 6794 c-4 -4 -267 -11 -585 -15 -567 -8 -677 -14 -817 -44 -67
-15 -71 -17 -99 -63 -16 -26 -46 -65 -67 -87 -55 -59 -89 -114 -89 -144 1 -34
32 -101 59 -125 24 -22 121 -32 380 -38 100 -2 159 -7 166 -15 20 -20 27 -327
13 -629 -14 -322 -9 -370 43 -420 39 -38 81 -37 181 3 116 48 264 122 281 141
40 44 66 354 63 749 l-1 243 30 12 c21 9 79 12 197 10 92 -1 189 3 214 8 26 6
97 33 158 59 61 27 126 52 143 56 18 4 35 11 38 16 4 5 9 9 13 9 5 0 6 -179 4
-397 -4 -438 12 -722 44 -786 42 -82 114 -147 164 -147 33 0 76 32 84 62 7 27
86 88 168 129 31 16 59 37 62 47 9 27 26 404 21 460 -2 26 -10 218 -16 427 -8
267 -16 390 -25 413 -13 33 -46 52 -89 52 -34 0 -232 -102 -293 -150 -28 -23
-56 -38 -62 -35 -6 4 -18 1 -26 -6 -13 -11 -14 -9 -8 16 5 22 2 31 -16 45 -13
10 -30 37 -39 60 -26 70 -54 84 -179 88 -59 2 -110 0 -115 -4z"/>
<path d="M10649 6707 c-30 -29 -88 -70 -129 -92 -41 -22 -92 -57 -113 -77
l-39 -37 7 -144 c6 -127 -10 -537 -22 -537 -2 0 -17 16 -34 35 -40 45 -89 69
-127 60 -16 -3 -94 -44 -172 -90 -140 -83 -210 -111 -375 -155 -100 -27 -323
-38 -408 -21 -135 29 -259 180 -233 285 13 52 235 256 279 256 7 0 40 9 72 20
33 11 84 20 117 20 53 0 63 -3 89 -29 l29 -30 -2 -119 c-3 -108 -1 -122 17
-142 17 -19 26 -21 73 -15 65 8 316 71 352 88 14 7 33 29 43 50 9 20 24 37 33
37 14 0 15 9 10 58 -11 89 -25 161 -48 232 -18 55 -32 75 -97 140 -97 96 -174
146 -278 182 -240 83 -552 20 -820 -164 -94 -65 -229 -206 -282 -295 -83 -140
-105 -232 -116 -480 l-8 -163 28 -55 c68 -134 191 -245 360 -326 116 -55 184
-74 322 -90 220 -25 519 47 707 171 39 26 111 71 159 101 92 56 167 124 220
197 17 23 38 42 47 42 9 0 21 5 28 12 9 9 12 -6 12 -68 0 -43 -4 -94 -9 -112
-9 -30 -7 -35 39 -81 104 -104 222 -136 470 -127 189 6 330 25 480 62 185 46
363 122 448 191 36 29 41 38 36 61 -11 46 -65 181 -75 187 -5 4 -87 -8 -182
-26 -148 -28 -193 -33 -322 -32 -95 0 -179 7 -229 17 -43 8 -80 17 -82 18 -1
2 0 25 3 51 4 32 12 51 24 58 49 26 566 59 633 41 22 -6 44 -8 50 -4 6 3 16 7
23 7 24 0 123 96 123 119 0 12 5 27 11 33 16 16 1 58 -50 136 -68 103 -75 105
-219 79 -168 -31 -300 -43 -432 -40 l-115 3 0 39 c0 30 6 43 27 59 23 17 50
21 210 28 214 10 336 22 508 50 156 26 159 29 160 148 0 111 -24 165 -84 191
-52 23 -404 40 -812 40 l-279 -1 -56 -52z"/>
<path d="M4010 5063 c-167 -28 -319 -129 -429 -283 -25 -36 -306 -422 -623
-858 -318 -436 -588 -812 -599 -835 -131 -254 14 -568 296 -642 66 -17 142
-19 195 -6 19 5 205 57 413 115 207 58 380 106 382 106 3 0 5 -160 5 -355 l0
-355 1240 0 1240 0 0 356 c0 334 1 355 18 350 76 -22 719 -201 762 -212 72
-18 142 -18 215 1 270 71 418 387 297 635 -15 30 -282 404 -593 830 -311 426
-589 809 -618 850 -105 149 -202 226 -346 277 l-80 28 -875 1 c-481 1 -886 0
-900 -3z"/>
<path d="M2382 1603 c-67 -33 -83 -119 -33 -175 l29 -33 2542 -3 c2814 -2
2583 -8 2617 62 21 45 11 95 -28 132 l-30 29 -2532 2 c-2324 2 -2535 1 -2565
-14z"/>
</g>
</svg>
