<?xml version="1.0" standalone="no"?>
<!DOCTYPE svg PUBLIC "-//W3C//DTD SVG 20010904//EN"
 "http://www.w3.org/TR/2001/REC-SVG-20010904/DTD/svg10.dtd">
<svg version="1.0" xmlns="http://www.w3.org/2000/svg"
 width="1280.000000pt" height="570.000000pt" viewBox="0 0 1280.000000 570.000000"
 preserveAspectRatio="xMidYMid meet">
<metadata>
Created by potrace 1.15, written by Peter Selinger 2001-2017
</metadata>
<g transform="translate(0.000000,570.000000) scale(0.100000,-0.100000)"
fill="#38b6ff" stroke="none">
<path d="M5010 4981 c-111 -24 -248 -76 -344 -131 -158 -91 -334 -262 -414
-402 l-27 -48 -740 -2 c-688 -3 -742 -4 -766 -21 -14 -9 -31 -29 -37 -43 -9
-18 -12 -260 -12 -900 0 -966 -3 -916 64 -948 31 -15 149 -16 1304 -16 814 0
1280 4 1297 10 14 5 37 22 50 36 22 23 25 36 25 98 l0 71 98 23 c53 12 124 34
157 47 33 14 65 25 72 25 6 0 118 -146 248 -325 130 -179 251 -335 268 -347
23 -17 49 -23 111 -26 l81 -4 200 178 c110 97 206 186 214 197 9 13 17 54 19
103 l4 82 -44 44 c-25 24 -169 157 -320 297 l-276 253 53 112 c83 174 121 358
112 541 -28 552 -403 986 -951 1099 -105 22 -335 20 -446 -3z m381 -196 c434
-76 751 -410 800 -843 34 -297 -72 -586 -292 -798 -122 -116 -238 -183 -398
-229 -401 -115 -840 45 -1065 389 -115 177 -159 325 -160 541 0 111 4 145 27
228 50 183 127 319 251 443 222 222 534 322 837 269z m-1269 -611 c3 -3 0 -24
-7 -47 -23 -78 -38 -247 -31 -357 34 -560 451 -1006 1016 -1085 82 -11 -60
-13 -1082 -14 -1057 -1 -1178 1 -1192 15 -14 14 -16 95 -16 739 0 644 2 725
16 739 14 14 87 16 653 16 351 0 640 -2 643 -6z"/>
<path d="M5125 4586 c-58 -27 -88 -57 -110 -108 -50 -122 31 -259 171 -288
121 -25 245 21 291 109 27 51 31 133 9 184 -17 43 -85 101 -135 115 -67 20
-169 15 -226 -12z"/>
<path d="M5025 4138 c-3 -7 -4 -238 -3 -513 l3 -500 225 0 225 0 0 510 0 510
-223 3 c-172 2 -224 0 -227 -10z"/>
<path d="M5645 3900 l-120 -5 -3 -392 -2 -392 -27 -21 c-26 -20 -36 -21 -251
-18 -221 3 -224 3 -243 27 -18 22 -19 44 -19 412 l0 389 -329 0 c-254 0 -330
-3 -334 -12 -2 -7 -1 -60 4 -118 18 -239 111 -435 283 -597 120 -113 249 -184
418 -230 98 -27 337 -25 443 4 169 46 311 130 432 256 174 181 267 422 255
659 l-2 37 -192 3 c-106 2 -247 1 -313 -2z"/>
<path d="M2860 3310 l0 -590 929 0 c512 0 932 4 935 8 8 13 -6 25 -54 51 -206
110 -400 310 -505 521 -74 147 -115 304 -124 475 l-6 120 -587 3 -588 2 0
-590z"/>
<path d="M1567 3893 c-4 -3 -7 -446 -7 -983 0 -746 3 -979 12 -988 13 -13 704
-18 724 -4 17 12 365 471 381 503 13 27 13 31 -14 66 l-28 36 -5 686 c-3 377
-6 687 -8 689 -5 5 -1049 1 -1055 -5z"/>
<path d="M6457 3893 c-4 -3 -7 -42 -7 -85 0 -152 -41 -323 -117 -489 -21 -47
-32 -83 -27 -88 5 -5 135 -124 289 -265 154 -141 291 -271 303 -289 22 -29 24
-40 20 -128 -4 -117 4 -106 -226 -310 -233 -207 -220 -199 -306 -199 -92 0
-140 14 -181 53 -19 18 -127 160 -240 317 -114 157 -214 293 -224 303 -17 17
-20 17 -72 -2 -30 -12 -88 -29 -129 -40 l-75 -19 -7 -58 c-5 -36 -18 -73 -34
-98 -21 -31 -24 -43 -16 -55 6 -9 25 -38 41 -66 16 -27 94 -142 173 -255 l144
-205 2390 -3 2391 -2 539 326 c296 180 654 396 794 481 140 85 261 160 269
168 25 25 1 50 -116 121 -994 600 -1238 748 -1346 815 l-129 79 -2047 0
c-1126 0 -2051 -3 -2054 -7z"/>
<path d="M2734 2423 c-6 -5 -17 -19 -23 -32 -7 -13 -181 -243 -387 -511 l-374
-489 0 -66 c0 -105 52 -181 139 -205 26 -7 658 -9 1962 -8 l1924 3 43 25 c57
32 92 91 92 154 0 46 -11 63 -357 565 -197 285 -362 525 -368 534 -9 15 -119
17 -1135 22 -619 3 -1210 7 -1315 10 -104 3 -195 2 -201 -2z m96 -171 c0 -4
-45 -82 -100 -172 -55 -91 -100 -171 -100 -177 0 -9 -18 -13 -55 -13 -30 0
-55 3 -55 7 0 3 52 87 116 185 l116 178 39 0 c21 0 39 -4 39 -8z m2617 -172
c68 -96 123 -178 123 -182 0 -5 -27 -8 -60 -8 -41 0 -60 4 -60 13 0 6 -49 86
-109 177 -59 91 -106 169 -104 173 3 4 23 7 46 5 l41 -3 123 -175z"/>
</g>
</svg>
