<?xml version="1.0" standalone="no"?><!DOCTYPE svg PUBLIC "-//W3C//DTD SVG 1.1//EN" "http://www.w3.org/Graphics/SVG/1.1/DTD/svg11.dtd"><svg t="1650066653402" class="icon" viewBox="0 0 1024 1024" version="1.1" xmlns="http://www.w3.org/2000/svg" p-id="3762" xmlns:xlink="http://www.w3.org/1999/xlink" width="450" height="450"><defs><style type="text/css">@font-face { font-family: feedback-iconfont; src: url("//at.alicdn.com/t/font_1031158_u69w8yhxdu.woff2?t=1630033759944") format("woff2"), url("//at.alicdn.com/t/font_1031158_u69w8yhxdu.woff?t=1630033759944") format("woff"), url("//at.alicdn.com/t/font_1031158_u69w8yhxdu.ttf?t=1630033759944") format("truetype"); }
</style></defs><path d="M487.50592 898.56H421.77024v-73.6256h65.73568v73.6256z m100.93568 0h-65.73568v-73.6256h65.73568v73.6256z m-229.77536-272.02048A123.8272 123.8272 0 0 1 269.312 588.5952a130.80576 130.80576 0 0 1 0-181.248c28.35968-29.1328 75.49952-47.96416 120.0896-47.96928 33.72544 0 61.91616 10.64448 81.53088 30.79168 52.736 54.17472 22.19008 152.064-22.92224 198.42048a123.8272 123.8272 0 0 1-89.344 37.94944z m30.72-201.28768c-26.48064 0-57.19552 11.81696-73.0368 28.09344a64.41472 64.41472 0 0 0 0 89.25184 58.53696 58.53696 0 0 0 84.59264 0c27.0336-27.776 43.31008-85.47328 22.92224-106.42944-6.8352-7.03488-19.07712-10.91584-34.45248-10.91584z m269.21984 201.28768a123.81696 123.81696 0 0 1-89.344-37.94432c-45.11232-46.34624-75.648-144.25088-22.92224-198.42048 19.6096-20.14208 47.80032-30.79168 81.52064-30.79168 44.59008 0 91.72992 18.83648 120.0896 47.96928a130.80064 130.80064 0 0 1 0 181.248 123.83232 123.83232 0 0 1-89.3184 37.9392z m-30.7456-201.28768c-15.36 0-27.61216 3.88096-34.46784 10.91584-20.38784 20.95104-4.096 78.65344 22.92224 106.42944a58.53184 58.53184 0 0 0 84.58752 0 64.41472 64.41472 0 0 0 0-89.25184c-15.84128-16.27648-46.55616-28.09344-73.0368-28.09344z m-89.84064 298.74176H478.72a44.13952 44.13952 0 0 1-38.4-65.79712l29.66528-52.7872a44.00128 44.00128 0 0 1 76.75904 0l29.65504 52.77184a44.13952 44.13952 0 0 1-38.35392 65.81248z" fill="#1296db" p-id="3763"></path><path d="M417.664 942.08a108.74368 108.74368 0 0 1-77.312-32.18432 113.024 113.024 0 0 1-33.2288-80.84992l0.128-57.53344a7.3472 7.3472 0 0 0-2.08384-5.2736 5.31968 5.31968 0 0 0-3.8656-1.68448h-47.38048A111.81568 111.81568 0 0 1 143.36 651.776V457.27744C143.36 250.30656 307.584 81.92 509.44 81.92S875.52 250.30656 875.52 457.27744V651.776a111.81568 111.81568 0 0 1-110.56128 112.78848h-48.77312a6.50752 6.50752 0 0 0-5.94944 6.9376v56.70912a111.95392 111.95392 0 0 1-109.91616 112.77824L418.3296 942.08h-0.6656zM509.44 147.85536c-165.58592 0-300.30336 138.8032-300.30336 309.42208V651.776a45.9008 45.9008 0 0 0 44.78464 46.85312h47.37536a70.72256 70.72256 0 0 1 50.44736 21.03808 72.95488 72.95488 0 0 1 21.2992 51.98848l-0.12288 57.53344a47.48288 47.48288 0 0 0 13.8752 34.00192 43.52 43.52 0 0 0 30.90432 12.9536h0.26112l181.9904-1.08544a45.96224 45.96224 0 0 0 44.544-46.848v-56.71936a72.38656 72.38656 0 0 1 71.72608-72.87296h48.77312a45.9008 45.9008 0 0 0 44.78464-46.85312V457.27744c-0.03584-170.61888-134.75328-309.42208-300.3392-309.42208z" fill="#1296db" p-id="3764"></path></svg>