<?xml version="1.0" standalone="no"?><!DOCTYPE svg PUBLIC "-//W3C//DTD SVG 1.1//EN" "http://www.w3.org/Graphics/SVG/1.1/DTD/svg11.dtd"><svg t="1650593521831" class="icon" viewBox="0 0 1024 1024" version="1.1" xmlns="http://www.w3.org/2000/svg" p-id="2208" xmlns:xlink="http://www.w3.org/1999/xlink" width="1000" height="1000"><defs><style type="text/css">@font-face { font-family: feedback-iconfont; src: url("//at.alicdn.com/t/font_1031158_u69w8yhxdu.woff2?t=1630033759944") format("woff2"), url("//at.alicdn.com/t/font_1031158_u69w8yhxdu.woff?t=1630033759944") format("woff"), url("//at.alicdn.com/t/font_1031158_u69w8yhxdu.ttf?t=1630033759944") format("truetype"); }
</style></defs><path d="M0 0h1024v1024H0z" fill="#d81e06" opacity=".01" p-id="2209"></path><path d="M102.4 238.933333a102.4 102.4 0 0 1 102.4-102.4h614.4a102.4 102.4 0 0 1 102.4 102.4v409.6a102.4 102.4 0 0 1-102.4 102.4h-170.666667a34.133333 34.133333 0 0 0-24.132266 10.001067L512 873.335467l-112.401067-112.401067A34.133333 34.133333 0 0 0 375.466667 750.933333H204.8a102.4 102.4 0 0 1-102.4-102.4V238.933333z m102.4-170.666666a170.666667 170.666667 0 0 0-170.666667 170.666666v409.6a170.666667 170.666667 0 0 0 170.666667 170.666667h156.535467l102.4 102.4a68.266667 68.266667 0 0 0 96.529066 0l102.4-102.4H819.2a170.666667 170.666667 0 0 0 170.666667-170.666667V238.933333a170.666667 170.666667 0 0 0-170.666667-170.666666H204.8z m341.333333 170.666666a34.133333 34.133333 0 1 0-68.266666 0v170.666667H307.2a34.133333 34.133333 0 1 0 0 68.266667h170.666667v170.666666a34.133333 34.133333 0 1 0 68.266666 0v-170.666666h170.666667a34.133333 34.133333 0 1 0 0-68.266667h-170.666667V238.933333z" fill="#d81e06" p-id="2210"></path></svg>