<?xml version="1.0" standalone="no"?><!DOCTYPE svg PUBLIC "-//W3C//DTD SVG 1.1//EN" "http://www.w3.org/Graphics/SVG/1.1/DTD/svg11.dtd"><svg t="1649384031912" class="icon" viewBox="0 0 1024 1024" version="1.1" xmlns="http://www.w3.org/2000/svg" p-id="23487" xmlns:xlink="http://www.w3.org/1999/xlink" width="300" height="300"><defs><style type="text/css">@font-face { font-family: feedback-iconfont; src: url("//at.alicdn.com/t/font_1031158_u69w8yhxdu.woff2?t=1630033759944") format("woff2"), url("//at.alicdn.com/t/font_1031158_u69w8yhxdu.woff?t=1630033759944") format("woff"), url("//at.alicdn.com/t/font_1031158_u69w8yhxdu.ttf?t=1630033759944") format("truetype"); }
</style></defs><path d="M810.8544 894.6688h-593.92c-73.5232 0-133.12-59.5968-133.12-133.12V367.6672c0-73.5232 59.5968-133.12 133.12-133.12h593.92c73.5232 0 133.12 59.5968 133.12 133.12v393.9328c0 73.472-59.5968 133.0688-133.12 133.0688z" fill="#A5ADF6" p-id="23488"></path><path d="M312.8832 421.0176H196.2496c-22.6304 0-40.96-18.3296-40.96-40.96s18.3296-40.96 40.96-40.96h116.6848c22.6304 0 40.96 18.3296 40.96 40.96s-18.3808 40.96-41.0112 40.96z" fill="#F7F8F8" p-id="23489"></path><path d="M647.936 116.3776H379.8016c-28.1088 0-52.5824 19.0464-59.5456 46.2848l-23.7056 93.0816c-9.3184 42.0352 22.6304 81.8688 65.6896 81.8688h303.3088c43.0592 0 75.008-39.8336 65.6896-81.8688l-23.7056-93.0816a61.50656 61.50656 0 0 0-59.5968-46.2848z" fill="#A5ADF6" p-id="23490"></path><path d="M296.5504 255.6928c-9.3184 42.0352 22.6304 81.8688 65.6896 81.8688h303.3088c43.0592 0 75.008-39.8336 65.6896-81.8688l-4.5056-20.2752H301.056l-4.5056 20.2752z" fill="#635DF7" p-id="23491"></path><path d="M513.8944 773.376c-106.496 0-193.1264-86.6304-193.1264-193.1776S407.3984 387.072 513.8944 387.072s193.1776 86.6304 193.1776 193.1264-86.6816 193.1776-193.1776 193.1776z m0-304.384c-61.3376 0-111.2064 49.92-111.2064 111.2064 0 61.3376 49.92 111.2576 111.2064 111.2576 61.3376 0 111.2576-49.92 111.2576-111.2576-0.0512-61.3376-49.92-111.2064-111.2576-111.2064z" fill="#F7F8F8" p-id="23492"></path></svg>