<?xml version="1.0" standalone="no"?><!DOCTYPE svg PUBLIC "-//W3C//DTD SVG 1.1//EN" "http://www.w3.org/Graphics/SVG/1.1/DTD/svg11.dtd"><svg t="1650066512969" class="icon" viewBox="0 0 1024 1024" version="1.1" xmlns="http://www.w3.org/2000/svg" p-id="3420" xmlns:xlink="http://www.w3.org/1999/xlink" width="450" height="450"><defs><style type="text/css">@font-face { font-family: feedback-iconfont; src: url("//at.alicdn.com/t/font_1031158_u69w8yhxdu.woff2?t=1630033759944") format("woff2"), url("//at.alicdn.com/t/font_1031158_u69w8yhxdu.woff?t=1630033759944") format("woff"), url("//at.alicdn.com/t/font_1031158_u69w8yhxdu.ttf?t=1630033759944") format("truetype"); }
</style></defs><path d="M452.8 939.4h-99.3c-44.4 0-80.6-33.1-80.6-73.7V239.9c0-40.6 36.1-73.7 80.6-73.7h502.8c44.4 0 80.6 33.1 80.6 73.7v111.3c0 8.3-6.7 15-15 15s-15-6.7-15-15V239.9c0-24.1-22.7-43.7-50.6-43.7H353.6c-27.9 0-50.6 19.6-50.6 43.7v625.9c0 24.1 22.7 43.7 50.6 43.7h99.3c8.3 0 15 6.7 15 15s-6.8 14.9-15.1 14.9z" fill="#1296db" p-id="3421"></path><path d="M757 694.5c-83.6 0-151.6-68-151.6-151.6s68-151.6 151.6-151.6 151.6 68 151.6 151.6-68 151.6-151.6 151.6z m0-273.3c-67.1 0-121.6 54.6-121.6 121.6 0 67.1 54.6 121.6 121.6 121.6 67.1 0 121.6-54.6 121.6-121.6S824.1 421.2 757 421.2z" fill="#1296db" p-id="3422"></path><path d="M949.4 896.9c-8.3 0-15-6.7-15-15 0-100.2-81.5-181.7-181.7-181.7S571 781.7 571 881.9c0 8.3-6.7 15-15 15s-15-6.7-15-15c0-116.8 95-211.7 211.7-211.7s211.7 95 211.7 211.7c0 8.3-6.7 15-15 15z" fill="#1296db" p-id="3423"></path><path d="M540.9 351.2H374.2c-8.3 0-15-6.7-15-15v-2.8c0-8.3 6.7-15 15-15h166.7c8.3 0 15 6.7 15 15v2.8c0 8.3-6.7 15-15 15zM540.9 485.6H374.2c-8.3 0-15-6.7-15-15v-2.8c0-8.3 6.7-15 15-15h166.7c8.3 0 15 6.7 15 15v2.8c0 8.3-6.7 15-15 15z" fill="#1296db" p-id="3424"></path></svg>