<?xml version="1.0" standalone="no"?><!DOCTYPE svg PUBLIC "-//W3C//DTD SVG 1.1//EN" "http://www.w3.org/Graphics/SVG/1.1/DTD/svg11.dtd"><svg t="1649296026082" class="icon" viewBox="0 0 1024 1024" version="1.1" xmlns="http://www.w3.org/2000/svg" p-id="20637" width="300" height="300" xmlns:xlink="http://www.w3.org/1999/xlink"><defs><style type="text/css">@font-face { font-family: feedback-iconfont; src: url("//at.alicdn.com/t/font_1031158_u69w8yhxdu.woff2?t=1630033759944") format("woff2"), url("//at.alicdn.com/t/font_1031158_u69w8yhxdu.woff?t=1630033759944") format("woff"), url("//at.alicdn.com/t/font_1031158_u69w8yhxdu.ttf?t=1630033759944") format("truetype"); }
</style></defs><path d="M785.2544 99.4816H240.9472c-73.0624 0-132.5056 59.4432-132.5056 132.5056v544.3072c0 73.0624 59.4432 132.5056 132.5056 132.5056h544.3072c73.0624 0 132.5056-59.4432 132.5056-132.5056V231.9872c0-73.0624-59.4432-132.5056-132.5056-132.5056z m71.0656 676.8128c0 39.168-31.8976 71.0656-71.0656 71.0656H240.9472c-39.168 0-71.0656-31.8976-71.0656-71.0656V231.9872c0-39.168 31.8976-71.0656 71.0656-71.0656h544.3072c39.168 0 71.0656 31.8976 71.0656 71.0656v544.3072z" fill="#e6e6e6" p-id="20638"></path><path d="M654.6944 450.048a30.6944 30.6944 0 0 0-24.4736-14.6432c-10.0864-0.6144-19.7632 3.84-25.9584 11.776l-125.2864 160.512-64.768-86.6816a30.78144 30.78144 0 0 0-24.1664-12.3392h-0.4608c-9.3696 0-18.2272 4.2496-24.064 11.6224l-139.1616 175.4112a30.69952 30.69952 0 0 0 4.9664 43.1616 30.7456 30.7456 0 0 0 43.1616-4.9664l114.3808-144.1792 64.9728 86.9888a30.67904 30.67904 0 0 0 24.2688 12.3392h0.3072c9.472 0 18.3808-4.352 24.2176-11.8272l122.7776-157.2864 129.1776 210.944a30.65856 30.65856 0 0 0 26.2144 14.6944c5.4784 0 11.008-1.4848 16.0256-4.5056a30.6944 30.6944 0 0 0 10.1376-42.24L654.6944 450.048zM363.2128 420.9664c43.9808 0 79.7184-35.7376 79.7184-79.7184s-35.7376-79.7184-79.7184-79.7184-79.7184 35.7888-79.7184 79.7184 35.7888 79.7184 79.7184 79.7184z m0-98.048c10.0864 0 18.2784 8.192 18.2784 18.2784s-8.192 18.2784-18.2784 18.2784-18.2784-8.192-18.2784-18.2784 8.2432-18.2784 18.2784-18.2784z" fill="#e6e6e6" p-id="20639"></path></svg>