<?xml version="1.0" standalone="no"?><!DOCTYPE svg PUBLIC "-//W3C//DTD SVG 1.1//EN" "http://www.w3.org/Graphics/SVG/1.1/DTD/svg11.dtd"><svg t="1650529746593" class="icon" viewBox="0 0 1024 1024" version="1.1" xmlns="http://www.w3.org/2000/svg" p-id="2334" xmlns:xlink="http://www.w3.org/1999/xlink" width="1000" height="1000"><defs><style type="text/css">@font-face { font-family: feedback-iconfont; src: url("//at.alicdn.com/t/font_1031158_u69w8yhxdu.woff2?t=1630033759944") format("woff2"), url("//at.alicdn.com/t/font_1031158_u69w8yhxdu.woff?t=1630033759944") format("woff"), url("//at.alicdn.com/t/font_1031158_u69w8yhxdu.ttf?t=1630033759944") format("truetype"); }
</style></defs><path d="M326.06 476.5h394.59v71.31H326.06z" fill="#1296db" p-id="2335"></path><path d="M487.7 314.85h71.31v394.61H487.7z" fill="#1296db" p-id="2336"></path><path d="M793.44 963.79H253.26c-100.12 0-181.56-81.43-181.56-181.53V242.05c0-100.1 81.43-181.54 181.56-181.54h540.18C893.57 60.51 975 141.96 975 242.05v540.21c0 100.1-81.43 181.53-181.56 181.53zM253.26 131.82c-60.8 0-110.24 49.45-110.24 110.23v540.21c0 60.77 49.45 110.22 110.24 110.22h540.18c60.8 0 110.24-49.45 110.24-110.22V242.05c0-60.79-49.45-110.23-110.24-110.23H253.26z" fill="#1296db" p-id="2337"></path></svg>