<?xml version="1.0" standalone="no"?><!DOCTYPE svg PUBLIC "-//W3C//DTD SVG 1.1//EN" "http://www.w3.org/Graphics/SVG/1.1/DTD/svg11.dtd"><svg t="1653297164241" class="icon" viewBox="0 0 1024 1024" version="1.1" xmlns="http://www.w3.org/2000/svg" p-id="2729" xmlns:xlink="http://www.w3.org/1999/xlink" width="1500" height="1500"><defs><style type="text/css">@font-face { font-family: feedback-iconfont; src: url("//at.alicdn.com/t/font_1031158_u69w8yhxdu.woff2?t=1630033759944") format("woff2"), url("//at.alicdn.com/t/font_1031158_u69w8yhxdu.woff?t=1630033759944") format("woff"), url("//at.alicdn.com/t/font_1031158_u69w8yhxdu.ttf?t=1630033759944") format("truetype"); }
</style></defs><path d="M345.6 938.666667H170.666667c-93.866667 0-170.666667-76.8-170.666667-170.666667V170.666667c0-93.866667 76.8-170.666667 170.666667-170.666667h554.666666c93.866667 0 170.666667 76.8 170.666667 170.666667v153.6c0 25.6-17.066667 42.666667-42.666667 42.666666s-42.666667-17.066667-42.666666-42.666666V170.666667c0-46.933333-38.4-85.333333-85.333334-85.333334H170.666667c-46.933333 0-85.333333 38.4-85.333334 85.333334v597.333333c0 46.933333 38.4 85.333333 85.333334 85.333333h174.933333c25.6 0 42.666667 17.066667 42.666667 42.666667s-21.333333 42.666667-42.666667 42.666667z" p-id="2730" fill="#1296db"></path><path d="M640 298.666667H213.333333c-25.6 0-42.666667-17.066667-42.666666-42.666667 0-21.333333 17.066667-42.666667 42.666666-42.666667h426.666667c21.333333 0 42.666667 17.066667 42.666667 42.666667s-17.066667 42.666667-42.666667 42.666667zM384 469.333333H213.333333c-21.333333 0-42.666667-17.066667-42.666666-42.666666 0-21.333333 17.066667-42.666667 42.666666-42.666667h170.666667c21.333333 0 42.666667 17.066667 42.666667 42.666667s-17.066667 42.666667-42.666667 42.666666zM810.666667 725.333333h-85.333334v-85.333333c0-21.333333-21.333333-42.666667-42.666666-42.666667s-42.666667 21.333333-42.666667 42.666667v128c0 21.333333 21.333333 42.666667 42.666667 42.666667h128c21.333333 0 42.666667-21.333333 42.666666-42.666667s-21.333333-42.666667-42.666666-42.666667z" fill="#1296db" p-id="2731"></path><path d="M725.333333 512c119.466667 0 213.333333 93.866667 213.333334 213.333333s-93.866667 213.333333-213.333334 213.333334-213.333333-93.866667-213.333333-213.333334 93.866667-213.333333 213.333333-213.333333m0-85.333333c-166.4 0-298.666667 132.266667-298.666666 298.666666s132.266667 298.666667 298.666666 298.666667 298.666667-132.266667 298.666667-298.666667-132.266667-298.666667-298.666667-298.666666z" p-id="2732" fill="#1296db"></path></svg>