<?xml version="1.0" standalone="no"?><!DOCTYPE svg PUBLIC "-//W3C//DTD SVG 1.1//EN" "http://www.w3.org/Graphics/SVG/1.1/DTD/svg11.dtd"><svg t="1650594068668" class="icon" viewBox="0 0 1024 1024" version="1.1" xmlns="http://www.w3.org/2000/svg" p-id="3801" xmlns:xlink="http://www.w3.org/1999/xlink" width="1000" height="1000"><defs><style type="text/css">@font-face { font-family: feedback-iconfont; src: url("//at.alicdn.com/t/font_1031158_u69w8yhxdu.woff2?t=1630033759944") format("woff2"), url("//at.alicdn.com/t/font_1031158_u69w8yhxdu.woff?t=1630033759944") format("woff"), url("//at.alicdn.com/t/font_1031158_u69w8yhxdu.ttf?t=1630033759944") format("truetype"); }
</style></defs><path d="M505.310035 1023.997096a94.031288 94.031288 0 0 1-76.060058-38.665376 93.668233 93.668233 0 0 1-81.687412 38.483848A98.751005 98.751005 0 0 1 258.977104 925.790673v-118.719039a98.38795 98.38795 0 0 0-56.27355-89.130043 170.817456 170.817456 0 0 1-95.120454-132.696663L85.618263 410.79692a358.880032 358.880032 0 0 1 16.155955-167.186904A368.137938 368.137938 0 0 1 447.765791 0h128.340001a368.500993 368.500993 0 0 1 346.173101 243.610016 361.23989 361.23989 0 0 1 16.155954 167.186904L917.377648 572.174942a186.791883 186.791883 0 0 1-110.913353 147.581924 95.301981 95.301981 0 0 0-55.547441 88.766989V925.790673A98.569478 98.569478 0 0 1 663.239032 1023.815568a94.575871 94.575871 0 0 1-81.687413-38.483848 93.84976 93.84976 0 0 1-76.241584 38.665376z m-76.060058-90.763792a22.872475 22.872475 0 0 1 21.420255 15.429845 57.907299 57.907299 0 0 0 108.91655 0 23.054003 23.054003 0 0 1 21.420255-15.429845 22.872475 22.872475 0 0 1 21.238727 15.248317 58.633409 58.633409 0 0 0 58.270354 38.846903 62.445489 62.445489 0 0 0 54.458275-61.537851v-117.266818a131.789025 131.789025 0 0 1 77.512278-122.168064 150.123311 150.123311 0 0 0 89.130043-118.719039l20.331089-161.378021a322.21146 322.21146 0 0 0-14.340679-150.486367A332.013949 332.013949 0 0 0 576.105792 36.305517h-128.340001A332.195477 332.195477 0 0 0 136.809041 255.772364a322.21146 322.21146 0 0 0-14.159151 150.486367L143.525562 580.888266a134.330411 134.330411 0 0 0 75.152419 104.37836 136.145687 136.145687 0 0 1 76.60464 121.805008V925.790673a62.445489 62.445489 0 0 0 54.458275 61.537851 58.270354 58.270354 0 0 0 58.088826-38.846903 22.872475 22.872475 0 0 1 21.420255-14.885262z" p-id="3802" fill="#8a8a8a"></path><path d="M286.569297 650.594857a127.069308 127.069308 0 0 1-32.130382-3.993606 90.763791 90.763791 0 0 1-58.451882-134.693467A138.687073 138.687073 0 0 1 263.878349 451.459099c58.270354-25.232334 162.285659-26.3215 186.610355 29.952051 11.25471 25.776917 3.085969 58.451882-23.23553 91.852957a222.189762 222.189762 0 0 1-82.231995 64.986875 148.308035 148.308035 0 0 1-58.451882 12.343875z m62.082433-179.712307a182.798276 182.798276 0 0 0-70.251174 13.796097A103.289195 103.289195 0 0 0 227.572833 529.152904a54.458275 54.458275 0 0 0 36.305516 82.413523 103.289195 103.289195 0 0 0 66.983678-6.716521 188.970214 188.970214 0 0 0 68.072844-54.458274c17.063593-21.78331 23.961641-42.477454 18.152758-54.458275-6.898048-16.155955-35.397879-25.050806-68.435899-25.050807zM737.120758 650.594857a147.581925 147.581925 0 0 1-58.270354-12.343875 225.094203 225.094203 0 0 1-82.231995-64.986875c-26.139972-33.401075-34.490241-66.07604-23.235531-91.852957 24.506224-56.273551 128.521529-54.458275 186.610355-29.952051a138.505546 138.505546 0 0 1 68.072844 60.448685 92.760595 92.760595 0 0 1 5.627355 82.59505 101.655446 101.655446 0 0 1-96.572674 56.092023z m-61.900906-179.712307c-32.856493 0-61.537851 8.894852-68.435899 24.869279-5.627355 12.706931 1.452221 33.401075 18.152759 54.458275a188.970214 188.970214 0 0 0 68.072843 54.458275c44.655785 19.423451 92.579067 8.168741 107.101274-24.869279a57.907299 57.907299 0 0 0-4.356662-50.827723 103.289195 103.289195 0 0 0-50.464668-44.474258 183.161331 183.161331 0 0 0-70.069647-13.614569zM559.405254 850.638254h-94.757398a37.939265 37.939265 0 0 1-35.034824-53.187582l47.3787-108.91655a37.939265 37.939265 0 0 1 69.888119 0l47.378699 108.91655a37.939265 37.939265 0 0 1-34.853296 53.187582z m-47.378699-149.397201a1.633748 1.633748 0 0 0-1.633748 1.089166l-47.378699 108.916549a1.633748 1.633748 0 0 0 0 1.633749h96.391146l1.633748-2.359859-47.378699-108.91655a1.633748 1.633748 0 0 0-1.633748-0.363055z m-65.712985 103.470722z" fill="#8a8a8a" p-id="3803"></path></svg>