<?xml version="1.0" standalone="no"?><!DOCTYPE svg PUBLIC "-//W3C//DTD SVG 1.1//EN" "http://www.w3.org/Graphics/SVG/1.1/DTD/svg11.dtd"><svg t="1650066262959" class="icon" viewBox="0 0 1024 1024" version="1.1" xmlns="http://www.w3.org/2000/svg" p-id="2563" xmlns:xlink="http://www.w3.org/1999/xlink" width="450" height="450"><defs><style type="text/css">@font-face { font-family: feedback-iconfont; src: url("//at.alicdn.com/t/font_1031158_u69w8yhxdu.woff2?t=1630033759944") format("woff2"), url("//at.alicdn.com/t/font_1031158_u69w8yhxdu.woff?t=1630033759944") format("woff"), url("//at.alicdn.com/t/font_1031158_u69w8yhxdu.ttf?t=1630033759944") format("truetype"); }
</style></defs><path d="M969.916632 460.584421A463.333053 463.333053 0 0 0 552.636632 43.358316V0h-88.144843v43.358316A463.198316 463.198316 0 0 0 47.157895 461.204211l-46.349474-0.889264L0 548.513684l47.211789 0.862316a463.494737 463.494737 0 0 0 417.28 417.28V1024h88.144843v-57.344a463.036632 463.036632 0 0 0 417.333894-417.899789l53.328842 0.970105 0.808421-88.198737z m-461.365895-328.757895h0.242526a373.059368 373.059368 0 0 1 0.242526 746.118737h-0.242526a373.059368 373.059368 0 0 1-0.242526-746.118737z" fill="#1296db" p-id="2564"></path><path d="M511.649684 365.541053h0.377263a68.446316 68.446316 0 1 0-0.377263 0z" fill="#1296db" p-id="2565"></path><path d="M420.298105 559.238737c5.820632 4.338526 11.641263 8.677053 17.381053 13.042526l-12.8 223.043369h69.416421l9.997474-187.257264h12.826947l11.560421 187.257264h65.589895l-8.542316-222.72 41.067789-26.650948-34.277052-175.562105h-163.112421l-32.094316 171.627789 2.964211 2.236632c6.575158 5.093053 13.312 9.970526 20.021894 14.982737z" fill="#1296db" p-id="2566"></path></svg>