<?xml version="1.0" standalone="no"?><!DOCTYPE svg PUBLIC "-//W3C//DTD SVG 1.1//EN" "http://www.w3.org/Graphics/SVG/1.1/DTD/svg11.dtd"><svg t="1653285752127" class="icon" viewBox="0 0 1024 1024" version="1.1" xmlns="http://www.w3.org/2000/svg" p-id="5176" xmlns:xlink="http://www.w3.org/1999/xlink" width="1500" height="1500"><defs><style type="text/css">@font-face { font-family: feedback-iconfont; src: url("//at.alicdn.com/t/font_1031158_u69w8yhxdu.woff2?t=1630033759944") format("woff2"), url("//at.alicdn.com/t/font_1031158_u69w8yhxdu.woff?t=1630033759944") format("woff"), url("//at.alicdn.com/t/font_1031158_u69w8yhxdu.ttf?t=1630033759944") format("truetype"); }
</style></defs><path d="M432.48664-10.019165m25.505255 25.505255l538.757875 538.757875q25.505255 25.505255 0 51.01051l-0.871848 0.871848q-25.505255 25.505255-51.01051 0l-538.757876-538.757875q-25.505255-25.505255 0-51.01051l0.871849-0.871848q25.505255-25.505255 51.01051 0Z" fill="#1296db" p-id="5177"></path><path d="M403.390552 292.896375m25.505255 25.505255l243.881071 243.881071q25.505255 25.505255 0 51.01051l-0.871848 0.871848q-25.505255 25.505255-51.01051 0l-243.881071-243.881071q-25.505255-25.505255 0-51.01051l0.871848-0.871848q25.505255-25.505255 51.01051 0Z" fill="#1296db" p-id="5178"></path><path d="M863.992405 200.155366m-25.505255 25.505256l-180.679463 180.679462q-25.505255 25.505255-51.01051 0l-0.871848-0.871848q-25.505255-25.505255 0-51.01051l180.679463-180.679463q25.505255-25.505255 51.01051 0l0.871848 0.871848q25.505255 25.505255 0 51.010511Z" fill="#1296db" p-id="5179"></path><path d="M937.079886 370.032778m-25.505255-25.505255l-233.345007-233.345007q-25.505255-25.505255 0-51.01051l0.871848-0.871849q25.505255-25.505255 51.01051 0l233.345007 233.345007q25.505255 25.505255 0 51.01051l-0.871848 0.871849q-25.505255 25.505255-51.01051 0Z" fill="#1296db" p-id="5180"></path><path d="M135.112508 621.730929a165.699918 165.699918 0 1 0 234.335072 234.335071L793.210151 432.303429 558.875079 197.968357l-423.762571 423.762572zM558.860302 116.354497l315.948932 315.948932-464.562113 464.562113c-87.243931 87.243931-228.690224 87.243931-315.934155 0s-87.243931-228.690224 0-315.934155L558.875079 116.369274z" fill="#1296db" p-id="5181"></path><path d="M104.523934 865.582446l-86.253866 118.763461a14.419592 14.419592 0 0 0 20.155949 20.155949l118.763461-86.253866L104.523934 865.582446z" fill="#1296db" p-id="5182"></path></svg>