<?xml version="1.0" standalone="no"?><!DOCTYPE svg PUBLIC "-//W3C//DTD SVG 1.1//EN" "http://www.w3.org/Graphics/SVG/1.1/DTD/svg11.dtd"><svg t="1653285130497" class="icon" viewBox="0 0 1024 1024" version="1.1" xmlns="http://www.w3.org/2000/svg" p-id="3119" xmlns:xlink="http://www.w3.org/1999/xlink" width="1500" height="1500"><defs><style type="text/css">@font-face { font-family: feedback-iconfont; src: url("//at.alicdn.com/t/font_1031158_u69w8yhxdu.woff2?t=1630033759944") format("woff2"), url("//at.alicdn.com/t/font_1031158_u69w8yhxdu.woff?t=1630033759944") format("woff"), url("//at.alicdn.com/t/font_1031158_u69w8yhxdu.ttf?t=1630033759944") format("truetype"); }
</style></defs><path d="M896 179.2l-32-6.4c-176-28.8-294.4-131.2-300.8-137.6l-3.2-3.2c-32-25.6-76.8-25.6-108.8 3.2 0 0-121.6 108.8-297.6 134.4l-51.2 6.4v3.2c-12.8 9.6-22.4 25.6-22.4 41.6v224c0 192 112 355.2 377.6 540.8 12.8 9.6 32 16 48 16s35.2-6.4 48-16c265.6-185.6 377.6-345.6 377.6-540.8v-224c3.2-16-12.8-35.2-35.2-41.6z m-60.8 92.8v182.4c0 108.8-38.4 249.6-326.4 451.2-288-201.6-326.4-342.4-326.4-451.2v-182.4c172.8-28.8 291.2-118.4 326.4-150.4 35.2 28.8 153.6 118.4 326.4 150.4z" p-id="3120" fill="#1296db"></path><path d="M364.8 550.4h92.8v92.8c0 25.6 19.2 44.8 44.8 44.8s44.8-19.2 44.8-44.8v-92.8h92.8c25.6 0 44.8-19.2 44.8-44.8 0-25.6-19.2-44.8-44.8-44.8h-92.8v-92.8c0-25.6-19.2-44.8-44.8-44.8s-44.8 19.2-44.8 44.8v92.8h-92.8c-25.6 0-44.8 19.2-44.8 44.8 0 22.4 19.2 44.8 44.8 44.8z" p-id="3121" fill="#1296db"></path></svg>