<?xml version="1.0" standalone="no"?><!DOCTYPE svg PUBLIC "-//W3C//DTD SVG 1.1//EN" "http://www.w3.org/Graphics/SVG/1.1/DTD/svg11.dtd"><svg t="1649383855846" class="icon" viewBox="0 0 1024 1024" version="1.1" xmlns="http://www.w3.org/2000/svg" p-id="23337" xmlns:xlink="http://www.w3.org/1999/xlink" width="300" height="300"><defs><style type="text/css">@font-face { font-family: feedback-iconfont; src: url("//at.alicdn.com/t/font_1031158_u69w8yhxdu.woff2?t=1630033759944") format("woff2"), url("//at.alicdn.com/t/font_1031158_u69w8yhxdu.woff?t=1630033759944") format("woff"), url("//at.alicdn.com/t/font_1031158_u69w8yhxdu.ttf?t=1630033759944") format("truetype"); }
</style></defs><path d="M681.9328 887.1936H189.44c-73.5232 0-133.12-59.5968-133.12-133.12V269.4656c0-73.5232 59.5968-133.12 133.12-133.12h492.544c73.5232 0 133.12 59.5968 133.12 133.12v484.608c-0.0512 73.5232-59.648 133.12-133.1712 133.12z" fill="#A5ADF6" p-id="23338"></path><path d="M578.816 587.8272l354.4064 204.5952c18.1248 10.4448 40.7552-2.6112 40.7552-23.5008V265.8816c0-20.8896-22.6304-33.9456-40.7552-23.5008L578.816 446.976c-54.2208 31.3344-54.2208 109.5168 0 140.8512z" fill="#A5ADF6" p-id="23339"></path><path d="M815.0528 310.5792L578.816 446.976c-54.2208 31.2832-54.2208 109.5168 0 140.8l236.288 136.3968V310.5792z" fill="#635DF7" p-id="23340"></path><path d="M320.9216 318.3616H211.2512c-21.248 0-38.4512-17.2032-38.4512-38.4512s17.2032-38.4512 38.4512-38.4512h109.6704c21.248 0 38.4512 17.2032 38.4512 38.4512s-17.2032 38.4512-38.4512 38.4512z" fill="#FFFFFF" p-id="23341"></path></svg>